/* XPM */
static char *_f103ed28e7445c58dbc921864783eb1qJ4GmDNimdw2TZhJ[] = {
/* columns rows colors chars-per-pixel */
"32 32 89 1 ",
"  c #0B0C23",
". c #29652F",
"X c #313265",
"o c #427C54",
"O c #437C54",
"+ c #437D55",
"@ c #437E55",
"# c #447F56",
"$ c #D13454",
"% c #75BD36",
"& c #478054",
"* c #45835A",
"= c #468459",
"- c #478559",
"; c #45845A",
": c #47865B",
"> c #488558",
", c #48875B",
"< c #49895C",
"1 c #498A5D",
"2 c #4A8B5E",
"3 c #4B8E5F",
"4 c #4E8E5D",
"5 c #4D8F5F",
"6 c #558950",
"7 c #548A50",
"8 c #558A51",
"9 c #5B9051",
"0 c #56985F",
"q c #57995F",
"w c #599A5F",
"e c #5A9B5E",
"r c #5B9C5E",
"t c #5D9D5D",
"y c #5F9E5D",
"u c #669C52",
"i c #609F5C",
"p c #619F5C",
"a c #609E5D",
"s c #609F5D",
"d c #66A158",
"f c #65A25B",
"g c #66A35B",
"h c #67A35B",
"j c #67A45A",
"k c #61A05C",
"l c #62A05C",
"z c #63A05C",
"x c #63A15C",
"c c #6AA659",
"v c #6BA659",
"b c #69A55A",
"n c #6AA55A",
"m c #6AA65A",
"M c #6DA859",
"N c #6FA958",
"B c #6EA859",
"V c #75AC55",
"C c #75AD56",
"Z c #76AE56",
"A c #79AF55",
"S c #7AB055",
"D c #7BB156",
"F c #7CB154",
"G c #4B8E60",
"H c #4B8F60",
"J c #4C8F60",
"K c #4B9162",
"L c #4C9060",
"P c #4C9061",
"I c #4C9161",
"U c #4D9161",
"Y c #4F9361",
"T c #4C9162",
"R c #4C9262",
"E c #4D9262",
"W c #4D9362",
"Q c #4D9263",
"! c #4D9363",
"~ c #4E9262",
"^ c #4E9362",
"/ c #4F9461",
"( c #509461",
") c #519561",
"_ c #529561",
"` c #529660",
"' c #539660",
"] c #509562",
"[ c #559760",
/* pixels */
"EEEEEEEEEEEEEEEEEEEEEEEG@=EEEEEE",
"EEEEEEEEEEEEEEEEEEEEEEEELKEEEEEE",
"EEEEEEEEEEEEEEEEEEEEEEEE@=!EEEEE",
"EEEEEEEEEEEEEEEEEEEEEEEo,#=!EEEE",
"EEEEEEEEEEEEEEEEEEEEEEEG@=EEEEEE",
"EEEEEEEEEEEEEEEEEEEEEEEE3GEEEEEE",
"EEEEEEEEEEEEEEEEEEEEEEEEEEEEEEEE",
"EEEEEEEEEEEEEEEEEE0bEEEEEEEEEEEE",
"EEEEEEEEEEEEEEEEEEeAvEEEEEEEEEEE",
"EEEEEKefEEEEEEEEEE[FC(Ef0EEEEEEE",
"EEEEEKkNEEEEEE   E`kC#dFeEEEEEEE",
"EEEEEKyB`fEEE %%% E46uA94EEEEEEE",
"EEEEEKyN0CEE %%%%% E=88,GEEEEEEE",
"EEEEEE[e0C   %%%%%   ==KEEEEEEEE",
"EEEEEEKE` ....%%%.... EEEEEEEEEE",
"KEEEEEEEE .....%..... EEEEEEEEEE",
"k`KEEEEEE .....X..... EEEEEEEEEE",
"hk`KEEEEEE ....X.... EEEEEEEEEEE",
"ah0GEEEEEEE ....... EEEEEEEEEEEE",
"h`EEEEEEEEEE ..... EEEEEEEEEEEEE",
"EEEEEEEEEEEE $$$$$ EEEEEEEEEEEEE",
"EEEEEEEEEEE $$$$$$$ EEEEEEEEEEEE",
"EEEEEEEEEEE2KEEEEEEEEEEEEEEEEEEE",
"EEEEEEEEEE<o,KEEEEEEEEEEEEEEEEEE",
"EEEEEEEEEJo,O2EEEEEEEEEEEEEEEEEE",
"EEEEEEEEEEEo4EEEEEEEEEEEEEE`[EEE",
"EEEEEEEEEEEEEEEEEEEEEEEEE`(avEEE",
"EEEEEEEEEEEEEEEEEEEEEEEEEbpaBJEE",
"EEEEEEEEEEEEEEEEEEEEEEEEEbkybEEE",
"EEEEEEEEEEEEEEEEEEEEEEEEEbaEEEEE",
"EEEEEEEEEEEEEE`EEEEEEEEEEEEEEEEE",
"EEEEEEEEEEEEEEbkKEEEEEEEEEEEEEEE"
};
