/* XPM */
static char *b34ab4fb8bdc45aece8b7ba6e6b6975d7fX71aLjO5ZRA8TE[] = {
/* columns rows colors chars-per-pixel */
"32 32 82 1 ",
"  c #0B0C23",
". c #427C54",
"X c #437C54",
"o c #437D55",
"O c #437E55",
"+ c #447F56",
"@ c #478054",
"# c #45835A",
"$ c #468459",
"% c #478559",
"& c #45845A",
"* c #47865B",
"= c #488558",
"- c #48875B",
"; c #49895C",
": c #498A5D",
"> c #4B8E5F",
", c #4E8E5D",
"< c #4D8F5F",
"1 c #558950",
"2 c #548A50",
"3 c #558A51",
"4 c #5B9051",
"5 c #56985F",
"6 c #57995F",
"7 c #599A5F",
"8 c #5A9B5E",
"9 c #5B9C5E",
"0 c #5D9D5D",
"q c #5F9E5D",
"w c #669C52",
"e c #609F5C",
"r c #609E5D",
"t c #609F5D",
"y c #66A158",
"u c #65A25B",
"i c #66A35B",
"p c #67A35B",
"a c #67A45A",
"s c #61A05C",
"d c #62A05C",
"f c #63A15C",
"g c #6BA659",
"h c #69A55A",
"j c #6AA55A",
"k c #6DA859",
"l c #6FA958",
"z c #6EA859",
"x c #75AC55",
"c c #75AD56",
"v c #76AE56",
"b c #79AF55",
"n c #7AB055",
"m c #7BB156",
"M c #7CB154",
"N c #4B8E60",
"B c #4B8F60",
"V c #4C8F60",
"C c #4B9162",
"Z c #4C9061",
"A c #4C9161",
"S c #4D9161",
"D c #4F9361",
"F c #4C9162",
"G c #4D9162",
"H c #4C9262",
"J c #4D9262",
"K c #4D9362",
"L c #4D9263",
"P c #4D9363",
"I c #4E9262",
"U c #4E9362",
"Y c #509461",
"T c #519561",
"R c #529561",
"E c #529660",
"W c #539660",
"Q c #509562",
"! c #559760",
"~ c #5A996D",
"^ c #AF947E",
"/ c #E5DBC9",
/* pixels */
"~~~~~~~~~~~~~~~~~~~~~~~~~~~~~~~~",
"JJJJJJJJJJJJJJJJJJJJJJJJ<CJJJJJJ",
"JJJJJJJJJJJJJJJJJJJJJJJJo*CJJJJJ",
"JJJJJJJJJJJJJJJJJJJJJJJ.*@*JJJJJ",
"JJJJJJJJJJJJJJJJJJJJJJJNo$CJJJJJ",
"JJJJJJJJJJJJJJJJJJJJJJJJ>CJJJJJJ",
"JJJJJJJJJJJJJJJJJJJJJJJJJJJJJJJJ",
"JJJJJJJJJJJJJJJJJJ5jJJJJJJJJJJJJ",
"JJJJJJJJJJJJJJJJJJ8bjJJJJJJJJJJJ",
"JJJJJC8uJJJJJJJJJJ!McEJu5JJJJJJJ",
"JJJJJCslJJJJJJJJJJEsc+yM8JJJJJJJ",
"JJJJJCqzEuJJJJJJJJJ,1wb4<JJJJJJJ",
"JJJJJCql5cYJJJJJJJJJ*11*<JJJJJJJ",
"JJJJJJ!85cJJJJJJJJJJC*$NJJJJJJJJ",
"JJJJJJCJEqJJJJJJJJJJJJJJJJJJJJJJ",
"CJJJJJJJJCJJJJJJJJJJJJJJJJJJJJJJ",
"sYCJJJJJJJJJJJJJJJJJJJJJJJJJJJJJ",
"psEJJJJJJJJJJJJJJJJJJJ     JJJJJ",
"rj5CJJJJJJJJ  J     J // // JJJJ",
"jJJJJJJJJJJ // /////  //^// JJJJ",
"JJJJJJJJJJJ / /////// //^// JJJJ",
"JJJJJJJJJJJ ///////// //^// JJJJ",
"JJJJJJJJJJJ: //////// ////// JJJ",
"JJJJJJJJJJ-o /////////// // / JJ",
"JJJJJJJJJN.- /////////// // / JJ",
"JJJJJJJJJJJ. ////^/////////// JJ",
"JJJJJJJJJJJJJ  ///^////////  VJJ",
"JJJJJJJJJJJJJJ ///^^////^  rkJJJ",
"JJJJJJJJJJJJJJJ     ///^/ rqjJJJ",
"JJJJJJJJJJJJJJJJJJJJ ///^/ JJJJJ",
"JJJJJJJJJJJJJJEJJJJJJJJJJJJJJJJJ",
"JJJJJJJJJJJJJJjsJJJJJJJJJJJJJJJJ"
};
