/* XPM */
static char *_fe4c907bf104811c4784271adc7d24fJCnsOD4TiinCc6hN[] = {
/* columns rows colors chars-per-pixel */
"32 32 83 1 ",
"  c #0B0C23",
". c #427C54",
"X c #437D55",
"o c #437E55",
"O c #447F56",
"+ c #478054",
"@ c #45835A",
"# c #468459",
"$ c #478559",
"% c #45845A",
"& c #47865B",
"* c #488558",
"= c #48875B",
"- c #4B8E5F",
"; c #4E8E5D",
": c #4D8F5F",
"> c #558950",
", c #548A50",
"< c #558A51",
"1 c #5B9051",
"2 c #56985F",
"3 c #57995F",
"4 c #599A5F",
"5 c #5A9B5E",
"6 c #5B9C5E",
"7 c #5D9D5D",
"8 c #5F9E5D",
"9 c #669C52",
"0 c #609F5C",
"q c #619F5C",
"w c #609E5D",
"e c #609F5D",
"r c #66A158",
"t c #65A25B",
"y c #66A35B",
"u c #67A35B",
"i c #67A45A",
"p c #61A05C",
"a c #62A05C",
"s c #63A05C",
"d c #63A15C",
"f c #6AA659",
"g c #6BA659",
"h c #69A55A",
"j c #6AA55A",
"k c #6AA65A",
"l c #6DA859",
"z c #6FA958",
"x c #6EA859",
"c c #75AC55",
"v c #75AD56",
"b c #76AE56",
"n c #79AF55",
"m c #7AB055",
"M c #7BB156",
"N c #7CB154",
"B c #4B8E60",
"V c #4B8F60",
"C c #4C8F60",
"Z c #4B9162",
"A c #4C9061",
"S c #4C9161",
"D c #4F9361",
"F c #4C9162",
"G c #4D9162",
"H c #4C9262",
"J c #4D9262",
"K c #4D9362",
"L c #4D9263",
"P c #4D9363",
"I c #4E9262",
"U c #4E9362",
"Y c #4F9461",
"T c #509461",
"R c #519561",
"E c #529561",
"W c #529660",
"Q c #539660",
"! c #509562",
"~ c #559760",
"^ c #5A996D",
"/ c #AF947E",
"( c #E5DBC9",
/* pixels */
"^^^^^^^^^^^^^^^^^^^^^^^^^^^^^^^^",
"JJJJJJJJJJJJJJJJJJJJJJJJ:ZJJJJJJ",
"JJJJJJJJJJJJJJJJJJJJJJJJX&ZJJJJJ",
"JJJJJJJJJJJJJJJJJJJJJJJ.&+&JJJJJ",
"JJJJJJJJJJJJJJJJJJJJJJJBX#ZJJJJJ",
"JJJJJJJJJJJJJJJJJJJJJJJJ-ZJJJJJJ",
"JJJJJJJJJJJJJJJJJJJJJJJJJJJJJJJJ",
"JJJJJJJJJJJJJJJJJJ2jJJJJJJJJJJJJ",
"JJJJJJJJJJJJJJJJJJ5njJJJJJJJJJJJ",
"JJJJJZ5tJJJJJJJJJJ~NvWJt2JJJJJJJ",
"JJJJJZpzJJJJJJJJJJWpvOrN5JJJJJJJ",
"JJJJJZ8xWtJJJJJJJJJ;>9n1:JJJJJJJ",
"JJJJJZ8z2vTJJJJJJJJJ&>>&:JJJJJJJ",
"JJJJJJ~52vJJJJJJJJJJZ&#BJJJJJJJJ",
"JJJJJJZJW8JJJJJJJJJJJJJJJJJJJJJJ",
"ZJJJJJJJJZJJJJJJJJJJJJJJJJJJJJJJ",
"pTJJJJJJJJJJJJJJJJJJJJJJJJJJJJJJ",
"uqWJJ     JJJJJJJJJJJJJJJJJJJJJJ",
"quWJ (( (( J     J  JJJJJJJJJJJJ",
"uWZJ ((/((  ((((( (( JJJJJJJJJJJ",
"JJJJ ((/(( ((((((( ( JJJJJJJJJJJ",
"JJJJ ((/(( ((((((((( JJJJJJJJJJJ",
"JJJ (((((( (((((((( JJJJJJJJJJJJ",
"JJ ( (( ((((((((((( JJJJJJJJJJJJ",
"JJ ( (( ((((((((((( JJJJJJJJJJJJ",
"JJ (((((((((((/(((( JJJJJJJW~JJJ",
"JJJ  ((((((((/(((  JJJJJJWJqlLJJ",
"JJJJJ  /((((//((( JJJJJJJjqqlBJJ",
"JJJJJJ (/(((     JJJJJJJZjp8jZJJ",
"JJJJJ (/((( JJJJJJJJJJJJZjqJJJJJ",
"JJJJJJJJJJJJJJWJJJJJJJJJJJJJJJJJ",
"JJJJJJJJJJJJJJjpJJJJJJJJJJJJJJJJ"
};
