/* XPM */
static char *d9bb38c3b9b54545e68643dc55f58102Xk6CukUYtHpTg4Ve[] = {
/* columns rows colors chars-per-pixel */
"32 32 240 2 ",
"   c #4D9262",
".  c #000014",
"X  c #000017",
"o  c #000018",
"O  c #000019",
"+  c #00001A",
"@  c #01031B",
"#  c #01031C",
"$  c #02041C",
"%  c #03051D",
"&  c #070820",
"*  c #090A21",
"=  c #0A0B22",
"-  c #0D0E24",
";  c #0D0E25",
":  c #0E0E25",
">  c #0E0F25",
",  c #100F24",
"<  c #101127",
"1  c #131226",
"2  c #121228",
"3  c #131429",
"4  c #161529",
"5  c #14142A",
"6  c #16162C",
"7  c #18192D",
"8  c #191A2E",
"9  c #1A1A2E",
"0  c #1C1A2D",
"q  c #1F1F32",
"w  c #1F1F33",
"e  c #201F31",
"r  c #202033",
"t  c #222033",
"y  c #212134",
"u  c #222234",
"i  c #242437",
"p  c #262638",
"a  c #272738",
"s  c #2A293B",
"d  c #2D2C3D",
"f  c #2F2D3C",
"g  c #2E2D3E",
"h  c #333242",
"j  c #343342",
"k  c #353443",
"l  c #373644",
"z  c #383645",
"x  c #3B3A48",
"c  c #3F3D4A",
"v  c #403E4B",
"b  c #423F4A",
"n  c #42404D",
"m  c #44424F",
"M  c #45434F",
"N  c #464450",
"B  c #484651",
"V  c #494752",
"C  c #4A4853",
"Z  c #4B4853",
"A  c #4B4954",
"S  c #4C4954",
"D  c #4C4A55",
"F  c #4D4B55",
"G  c #4E4B56",
"H  c #4F4D57",
"J  c #504D57",
"K  c #504E58",
"L  c #514E58",
"P  c #514F58",
"I  c #525059",
"U  c #53505A",
"Y  c #56525A",
"T  c #56535C",
"R  c #58555E",
"E  c #59565E",
"W  c #5B585F",
"Q  c #75625B",
"!  c #5B5860",
"~  c #615E65",
"^  c #646167",
"/  c #676267",
"(  c #666268",
")  c #68646A",
"_  c #6B676C",
"`  c #6C686D",
"'  c #6E6A6F",
"]  c #706C70",
"[  c #736F72",
"{  c #747073",
"}  c #787376",
"|  c #797477",
" . c #7D787A",
".. c #83756F",
"X. c #84746D",
"o. c #807B7C",
"O. c #837E7E",
"+. c #847F7F",
"@. c #907F75",
"#. c #928277",
"$. c #858080",
"%. c #878180",
"&. c #868181",
"*. c #8B8584",
"=. c #8B8685",
"-. c #8D8684",
";. c #8C8685",
":. c #8E8887",
">. c #928C8A",
",. c #928D8A",
"<. c #948E8B",
"1. c #948E8C",
"2. c #96908D",
"3. c #97918E",
"4. c #9B9591",
"5. c #9D9690",
"6. c #9D9792",
"7. c #9F9893",
"8. c #A39183",
"9. c #A3968C",
"0. c #B89E86",
"q. c #A19B96",
"w. c #A39C97",
"e. c #B9A18C",
"r. c #BBA48E",
"t. c #BBA48F",
"y. c #BCA48E",
"u. c #BDA58F",
"i. c #A9A29B",
"p. c #ABA39C",
"a. c #ABA49D",
"s. c #AFA69D",
"d. c #ACA59E",
"f. c #BEA792",
"g. c #BEA893",
"h. c #BAAA9A",
"j. c #B2ABA2",
"k. c #B2ABA3",
"l. c #B8B1A7",
"z. c #BCB4AA",
"x. c #C0A891",
"c. c #C6B29D",
"v. c #C6B39E",
"b. c #C7B49F",
"n. c #C8B4A0",
"m. c #C8B5A0",
"M. c #CBB7A2",
"N. c #CAB8A3",
"B. c #CBB8A3",
"V. c #CBB8A4",
"C. c #CFBBA5",
"Z. c #C1B8AD",
"A. c #C1B9AE",
"S. c #C2BAAF",
"D. c #C3BBAF",
"F. c #D0BDA8",
"G. c #C4BBB0",
"H. c #C4BCB0",
"J. c #C5BDB1",
"K. c #C7BEB2",
"L. c #D2C2AE",
"P. c #C9C0B3",
"I. c #C9C1B4",
"U. c #CBC2B5",
"Y. c #CCC3B5",
"T. c #CDC5B7",
"R. c #CFC6B8",
"E. c #D5C5B0",
"W. c #D6C7B4",
"Q. c #D7C9B6",
"!. c #D1C8BA",
"~. c #D2C9BA",
"^. c #D2C9BB",
"/. c #D5CCBD",
"(. c #D6CCBD",
"). c #D6CDBE",
"_. c #D7CEBF",
"`. c #DACDBA",
"'. c #DBCEBB",
"]. c #DDCFBB",
"[. c #D8CFBF",
"{. c #DCCFBC",
"}. c #DCD1BF",
"|. c #E0D3BF",
" X c #D9D0C0",
".X c #DAD1C1",
"XX c #DBD2C1",
"oX c #DDD2C0",
"OX c #DED3C1",
"+X c #DED5C4",
"@X c #E0D4C1",
"#X c #E0D5C2",
"$X c #E0D5C3",
"%X c #E1D5C3",
"&X c #E1D6C3",
"*X c #E1D6C4",
"=X c #E0D6C5",
"-X c #E0D7C5",
";X c #E2D6C4",
":X c #E2D7C5",
">X c #E0D7C6",
",X c #E2D8C6",
"<X c #E3D8C6",
"1X c #E2D8C7",
"2X c #E3D9C7",
"3X c #E4DAC8",
"4X c #E5DAC8",
"5X c #E5DBC9",
"6X c #E6DCC9",
"7X c #E5DCCA",
"8X c #E6DCCA",
"9X c #E7DDCA",
"0X c #E6DDCB",
"qX c #E7DDCB",
"wX c #E7DECC",
"eX c #E8DDC9",
"rX c #E8DDCB",
"tX c #E8DECB",
"yX c #E8DECC",
"uX c #E9DFCC",
"iX c #E9DFCD",
"pX c #EADFCD",
"aX c #E9E0CD",
"sX c #EAE0CD",
"dX c #EBE1CE",
"fX c #ECE2CE",
"gX c #ECE2CF",
"hX c #EDE2CF",
"jX c #EDE3CF",
"kX c #EDE3D0",
"lX c #EEE3D0",
"zX c #EDE4D0",
"xX c #EEE4D0",
"cX c #EFE4D0",
"vX c #EEE4D1",
"bX c #EFE4D1",
"nX c #F0E5D1",
"mX c #F0E6D2",
"MX c #F2E7D3",
"NX c #F6EBD6",
/* pixels */
"                                                                ",
"                                                                ",
"                                                                ",
"                                                                ",
"                                                                ",
"                                                                ",
"                                                                ",
"                                                                ",
"                                                                ",
"                                                                ",
"                                                                ",
"                  @ $ * & # #                                   ",
"                v F M 6 p D C h                                 ",
"              : &.XXA.l ( (.R.I O   2 2 2 2 2 2 2     2 2       ",
"              : ,.NX*X..9.mXqXE X 4 [ &.O.O.O.$.| t E ;.o.x     ",
"              : :.kX%Xy.m.yX*XT : M G.kXqXqXqXkX!.P } R.XXV O   ",
"              : :.jX%Xr.m.aX+XI c z.*XyX6XrXrX6X4XG.) ~ !.S O   ",
"              * ;.jX+Xe.n.qX1XH I qXyX7X4X7X7X7X6XpX4.$. XS O   ",
"              r 2.jX%Xf.N.qX+XP H *XqX7X7X4X7X4X7X4X4X$XI.N O   ",
"            i 4.!.eX7X].OXqX<XC C *XqX7X4X7X4X7X7X7XpXZ.T s     ",
"          k E q.!.yX*Xk.A.eX1X . .1X6X7X4X7X7X4X7X7XkXi.4       ",
"        % _ j.z 1.mX(.N } eXqX(. X7X7X4X7X4X7X7X4X7XhXp.8       ",
"        % { D.r &.MX^.d ^ aX1XdXyX7X7X7X7X6X6X7X7X4XkXp.8       ",
"        % ] P.D 7.mX(.E O.qXqXqX7X7X4X7X;X].*X7X7X6XmXd.8       ",
"        % ` <XK.(.qX<XK.R.qX3X3X7X7X7XeX[.f.W.qX7X6XmXd.0       ",
"          J O.*.K.zXdXzXeXqXqX3X7X7XeX`.M.v.`.yX[.3.+.' 8       ",
"            2 2 -.(.~.}.<XqX3X3X7X;X*Xv.y.%XqXdXU.k = 1         ",
"                v S Y 8.E.qX3XqX6X;XM.0.x.eXzXMXR.g X           ",
"                  O < #.C.Q.<X7XyX%X@.Q X.5.q.w.,.d             ",
"                    r s.C.f.%XqXyXU.v 1 0 q r q q               ",
"                  m :.h.V.L.;XhXl.^ i                           ",
"                O F }.y.b.qX7XhX<.:                             "
};
