/* XPM */
static char *_1161c6044b44c7eca53572d659b11bc8PG1NQg0MW8QGCL6[] = {
/* columns rows colors chars-per-pixel */
"32 32 68 1 ",
"  c #14182E",
". c #427C54",
"X c #437C54",
"o c #437D55",
"O c #437E55",
"+ c #447F56",
"@ c #E64539",
"# c #AD2F45",
"$ c #468459",
"% c #47865B",
"& c #488558",
"* c #48875B",
"= c #49895C",
"- c #498A5D",
"; c #4A8B5E",
": c #4B8E5F",
"> c #4E8E5D",
", c #5B9051",
"< c #56985F",
"1 c #57995F",
"2 c #5A9B5E",
"3 c #5B9C5E",
"4 c #5D9D5D",
"5 c #5F9E5D",
"6 c #609F5C",
"7 c #619F5C",
"8 c #609E5D",
"9 c #609F5D",
"0 c #65A25B",
"q c #66A35B",
"w c #67A35B",
"e c #67A45A",
"r c #62A05C",
"t c #63A05C",
"y c #63A15C",
"u c #6AA659",
"i c #69A55A",
"p c #6AA55A",
"a c #6AA65A",
"s c #6DA859",
"d c #6FA958",
"f c #6EA859",
"g c #7BB156",
"h c #4B8E60",
"j c #4B8F60",
"k c #4C8F60",
"l c #4B9162",
"z c #4C9060",
"x c #4C9061",
"c c #4C9161",
"v c #4D9161",
"b c #4F9361",
"n c #4C9162",
"m c #4C9262",
"M c #4D9262",
"N c #4D9362",
"B c #4D9263",
"V c #4D9363",
"C c #4E9262",
"Z c #4E9362",
"A c #4F9461",
"S c #509461",
"D c #519561",
"F c #529561",
"G c #539660",
"H c #509562",
"J c #559760",
"K c #FFC2A1",
/* pixels */
"MMMMMMMMMMMMMMMMMMMMMMMh.$lMMMMM",
"MMMMMMMMMMMMMMMMMMMMMMMMlMMMMMMM",
"MMMMMMMMMMMMMMMMMMMMMMMM.$MMMMMM",
"MMMMMMMMMMMMMMMMMMMMMMM.=$$MMMMM",
"MMMMMMMMMMMMMMMMMMMMMMMh.$:MMMMM",
"MMMMMMMMMMMMMMMMMMMMMMMM:MMMMMMM",
"MMMMMMMMMMMMMMMMMMMMMMMMMMMMMMMM",
"MMMMMMMMMMMMMMMMMM<iMMMMMMMMMMMM",
"MMMMMMMlMM    MMM    SMMMMMMMMMM",
"MMMMMl20MM    MMM    Hkw1MMMMMMM",
"MMMMMlrd  @@@@   ####  g2MMMMMMM",
"MMMMMl5f  @@@@   ####  ,:MMMMMMM",
"MMMMMl5d  @@KK@@@@@##  &:MMMMMMM",
"MMMMMMJ2  @@KK@@@@@##  MMMMMMMMM",
"MMMMMMlM  @@@@@@@@@##  MMMMMMMMM",
"lMMMMMMM  @@@@@@@@@##  MMMMMMMMM",
"0MlMMMMM  @@@@@@@@@##  MMMMMMMMM",
"00HlMMMMMM  @@@@@##  MMMMMMMMMMM",
"70<lMMMMMM  @@@@@##  MMMMMMMMMMM",
"iHMMMMMMMMMM  ###  MMMMMMMMMMMMM",
"MMMMMMMMMMMM  ###  MMMMMMMMMMMMM",
"MMMMMMMMMMMNMM   MMMMMMMMMMMMMMM",
"MMMMMMMMMMM;MM   MMMMMMMMMMMMMMM",
"MMMMMMMMMM=.$MMMMMMMMMMMMMMMMMMM",
"MMMMMMMMM:X*X;MMMMMMMMMMMMMMMMMM",
"MMMMMMMMMMM.:MMMMMMMMMMMMMMH<MMM",
"MMMMMMMMMMMMMMMMMMMMMMMMMHS7sMMM",
"MMMMMMMMMMMMMMMMMMMMMMMMMi77shMM",
"MMMMMMMMMMMMMMMMMMMMMMMMMit3iMMM",
"MMMMMMMMMMMMMMMMMMMMMMMMMi7MMMMM",
"MMMMMMMMMMMMMMHSMMMMMMMMMMMMMMMM",
"MMMMMMMMMMMMMMi7lMMMMMMMMMMMMMMM"
};
