/* XPM */
static char *_b4c96686b3246f5b18039f46d50f81at3mV7cpAzpDEfUWA[] = {
/* columns rows colors chars-per-pixel */
"32 32 208 2 ",
"   c #4D9262",
".  c #00001D",
"X  c #020021",
"o  c #030021",
"O  c #040021",
"+  c #070321",
"@  c #040621",
"#  c #070721",
"$  c #080521",
"%  c #020820",
"&  c #0A0A22",
"*  c #0A0C22",
"=  c #0B0D22",
"-  c #0A0D23",
";  c #0B0E23",
":  c #100B24",
">  c #160C25",
",  c #150F25",
"<  c #0B1023",
"1  c #0D1023",
"2  c #0C1223",
"3  c #0F1623",
"4  c #0C1624",
"5  c #0E1624",
"6  c #0D1824",
"7  c #0E1824",
"8  c #0E1924",
"9  c #0F1924",
"0  c #0F1A24",
"q  c #0F1B25",
"w  c #0F1C25",
"e  c #101523",
"r  c #111623",
"t  c #101925",
"y  c #111E25",
"u  c #101F25",
"i  c #260F29",
"p  c #3B142F",
"a  c #3C142F",
"s  c #172024",
"d  c #122426",
"f  c #192225",
"g  c #192325",
"h  c #142927",
"j  c #152B27",
"k  c #162E27",
"l  c #1F2F26",
"z  c #163027",
"x  c #1C3027",
"c  c #173228",
"v  c #173428",
"b  c #183628",
"n  c #193929",
"m  c #1A3A29",
"M  c #1A3B29",
"N  c #193D29",
"B  c #1A3C29",
"V  c #203026",
"C  c #20372A",
"Z  c #471631",
"A  c #591A36",
"S  c #462732",
"D  c #74203D",
"F  c #79223E",
"G  c #66363B",
"H  c #1B402A",
"J  c #1E462B",
"K  c #1F492B",
"L  c #1F4B2B",
"P  c #1F4C2B",
"I  c #1D4F2B",
"U  c #204C2C",
"Y  c #204D2C",
"T  c #204E2C",
"R  c #214E2C",
"E  c #214F2C",
"W  c #2F4929",
"Q  c #2A4A2E",
"!  c #324D29",
"~  c #21502C",
"^  c #21512C",
"/  c #22542D",
"(  c #24542C",
")  c #205A2C",
"_  c #24592D",
"`  c #255D2E",
"'  c #265E2E",
"]  c #36552A",
"[  c #3D5F2B",
"{  c #2A553F",
"}  c #295C38",
"|  c #2D5B3D",
" . c #27612E",
".. c #25622E",
"X. c #25622F",
"o. c #25632F",
"O. c #26632E",
"+. c #27632F",
"@. c #22672D",
"#. c #22662E",
"$. c #22672E",
"%. c #27642F",
"&. c #27662E",
"*. c #2C632E",
"=. c #28672D",
"-. c #28642F",
";. c #28652F",
":. c #28662E",
">. c #28662F",
",. c #29662F",
"<. c #29672F",
"1. c #22682C",
"2. c #22682D",
"3. c #22682E",
"4. c #29682F",
"5. c #2B682F",
"6. c #2D6B2F",
"7. c #3F632B",
"8. c #3F632C",
"9. c #3B652C",
"0. c #336E2F",
"q. c #286331",
"w. c #286232",
"e. c #286430",
"r. c #296930",
"t. c #2A6A30",
"y. c #2A6B30",
"u. c #356032",
"i. c #366132",
"p. c #376332",
"a. c #376433",
"s. c #316F30",
"d. c #377630",
"f. c #377035",
"g. c #387830",
"h. c #42672C",
"j. c #43692C",
"k. c #446B2C",
"l. c #4F7E2E",
"z. c #457C3B",
"x. c #2F395D",
"c. c #2D3261",
"v. c #2B454F",
"b. c #2C4C49",
"n. c #2C494C",
"m. c #2A5340",
"M. c #325349",
"N. c #384A58",
"B. c #852441",
"V. c #982746",
"C. c #A12A48",
"Z. c #B52D4D",
"A. c #BE304F",
"S. c #C43051",
"D. c #CD3453",
"F. c #CF3554",
"G. c #D43355",
"H. c #D53355",
"J. c #D63355",
"K. c #D73355",
"L. c #D13454",
"P. c #D03554",
"I. c #D23454",
"U. c #D33554",
"Y. c #D53555",
"T. c #D53655",
"R. c #D93656",
"E. c #894844",
"W. c #8B4845",
"Q. c #8D4A45",
"!. c #8F4B46",
"~. c #438331",
"^. c #4F8630",
"/. c #4B8D31",
"(. c #578B30",
"). c #588D30",
"_. c #5A8F30",
"`. c #4F9332",
"'. c #509232",
"]. c #5C9330",
"[. c #5A9F32",
"{. c #5CA033",
"}. c #67AC34",
"|. c #67AD34",
" X c #69A933",
".X c #6BAD33",
"XX c #69B034",
"oX c #6EB534",
"OX c #6FB634",
"+X c #6EB635",
"@X c #71B835",
"#X c #73BA35",
"$X c #73BB35",
"%X c #74BB35",
"&X c #74BC34",
"*X c #74BC35",
"=X c #75BD35",
"-X c #75BE35",
";X c #76BE35",
":X c #77C135",
">X c #78C035",
",X c #78C135",
"<X c #78C236",
"1X c #79C336",
"2X c #79C436",
"3X c #7AC536",
"4X c #7CC836",
"5X c #578A41",
/* pixels */
"                                                                ",
"                                                                ",
"                                                                ",
"                                                                ",
"                                                                ",
"                                                                ",
"                                                                ",
"                                                                ",
"                              5 r r e 3                         ",
"                            r ] j.j.j.h.l                       ",
"                          1 V (.;X#X;X X! r                     ",
"                        * W l..X2X:X2X%X).[ s                   ",
"                        * h.%X:X;X#X;X;X1X).g o                 ",
"                  $ $ o & h.:X2X;X;X$X;X4X].g o $ $ $           ",
"                7 7 y 7 y 9.}.$X;X;X;X$X+X^.x 5 w 7 t           ",
"              * c U P P U *.~.}.:X;X;X#X`.0./ P U ~ H 7         ",
"              * n 4.y.4.4.&.6.'.XX&XoX{.g.&.e.4.4.y.^ 8 +       ",
"              * N 4.-.e.&.-.-.6./.+X[.d.-.+.-.4.&.y.^ w +       ",
"              * n 4.4.&.e.-.&.+.f.5Xz.+.&.&.&.4.%.y.~ 7 +       ",
"              * n -.4.-.-.-.&.=.| N.M.-.=.-.-.-.e.4.U 7 +       ",
"              * k J ` -.-.-.-.=.m.c.v.e.-.-.-.4.-.~ b 5         ",
"                * d ~ -.w.&.-.4.{ x.n.e.&.4.-.-.` k <           ",
"                  < z U &.y.%.%.} b.{ -.-.4.4./ n w             ",
"                    & h _ e.e.%.e.w.w.-.-.4.+.M 2               ",
"                      7 b P @.@.@.@.3.3.3.) N d                 ",
"                        ; m p.a.p.p.p.p.a.Q t #                 ",
"                        + S W.Q.E.E.W.W.!.G > .                 ",
"                        i F F.L.L.D.F.L.T.C.a >                 ",
"                    % p B.Z.K.K.K.K.K.L.K.S.V.A :               ",
"                    % Z A.R.F.L.D.L.L.L.L.Y.L.D :               ",
"                                                                ",
"                                                                "
};
