/* XPM */
static char *ea36d625a1e34380c63046904b0f0bef4Z0lKBM8P5K6Qd8d[] = {
/* columns rows colors chars-per-pixel */
"32 32 173 2 ",
"   c #677943",
".  c #677A43",
"X  c #677C43",
"o  c #687943",
"O  c #6C7A45",
"+  c #6C7B45",
"@  c #6F7B46",
"#  c #6A7D44",
"$  c #6B7D44",
"%  c #6B7C45",
"&  c #6C7C45",
"*  c #6C7E45",
"=  c #6D7E45",
"-  c #6C7F45",
";  c #6D7F45",
":  c #707B46",
">  c #727B47",
",  c #767949",
"<  c #747A48",
"1  c #757F48",
"2  c #7B794A",
"3  c #7D7A4B",
"4  c #7C7C4B",
"5  c #7C7E4B",
"6  c #807A4C",
"7  c #807B4C",
"8  c #827A4D",
"9  c #867B4E",
"0  c #877B4F",
"q  c #817D4C",
"w  c #837C4D",
"e  c #847D4E",
"r  c #857D4E",
"t  c #867D4E",
"y  c #877E4E",
"u  c #8F7D51",
"i  c #8D7E51",
"p  c #8E7E51",
"a  c #907F52",
"s  c #947F53",
"d  c #967D54",
"f  c #977D55",
"g  c #977F54",
"h  c #987E55",
"j  c #997F55",
"k  c #9D7F56",
"l  c #9D7F57",
"z  c #6F8146",
"x  c #718246",
"c  c #718247",
"v  c #728347",
"b  c #738447",
"n  c #748447",
"m  c #748547",
"M  c #778049",
"N  c #748348",
"B  c #768348",
"V  c #758648",
"C  c #758748",
"Z  c #768648",
"A  c #778748",
"S  c #788149",
"D  c #7D824B",
"F  c #7B844A",
"G  c #798949",
"H  c #7A8949",
"J  c #7B8B49",
"K  c #7A894A",
"L  c #7B8A4A",
"P  c #7B8B4A",
"I  c #7C8B4A",
"U  c #7E8A4B",
"Y  c #7C8C4A",
"T  c #7D8C4A",
"R  c #7C8D4A",
"E  c #7D8D4A",
"W  c #7F8D4B",
"Q  c #81824C",
"!  c #808F4B",
"~  c #808A4C",
"^  c #818B4C",
"/  c #808E4C",
"(  c #818E4C",
")  c #838E4D",
"_  c #81904C",
"`  c #82914C",
"'  c #83904D",
"]  c #82924C",
"[  c #83924C",
"{  c #84914D",
"}  c #84924C",
"|  c #84934C",
" . c #85924D",
".. c #84934D",
"X. c #85934D",
"o. c #86914E",
"O. c #85934E",
"+. c #86924E",
"@. c #86934E",
"#. c #87934E",
"$. c #85944D",
"%. c #86944D",
"&. c #87954D",
"*. c #87944E",
"=. c #87954E",
"-. c #88954E",
";. c #88964E",
":. c #89964E",
">. c #89974E",
",. c #8A974F",
"<. c #8B974F",
"1. c #8B984F",
"2. c #8C984F",
"3. c #968154",
"4. c #9C8056",
"5. c #9E8157",
"6. c #9E8357",
"7. c #8B9750",
"8. c #8C9850",
"9. c #8D9850",
"0. c #8C9950",
"q. c #8D9950",
"w. c #8E9950",
"e. c #8E9A50",
"r. c #8F9A51",
"t. c #8F9B51",
"y. c #909B51",
"u. c #919B51",
"i. c #919C52",
"p. c #929C52",
"a. c #929D52",
"s. c #939D52",
"d. c #949E52",
"f. c #949E53",
"g. c #959E53",
"h. c #959F53",
"j. c #969F53",
"k. c #A28158",
"l. c #A38359",
"z. c #A08458",
"x. c #A28558",
"c. c #A38559",
"v. c #A58459",
"b. c #A48659",
"n. c #A6845A",
"m. c #A7865A",
"M. c #A7875A",
"N. c #A8855A",
"B. c #A58859",
"V. c #A7895A",
"C. c #A8895A",
"Z. c #AA895B",
"A. c #AB8B5B",
"S. c #AC8B5C",
"D. c #AC8C5C",
"F. c #AD8C5C",
"G. c #AD8D5C",
"H. c #AE8E5C",
"J. c #AF8E5D",
"K. c #AF8F5D",
"L. c #B08F5D",
"P. c #000000",
"I. c #B1915D",
"U. c #96A053",
"Y. c #97A054",
"T. c #97A154",
"R. c #98A154",
"E. c #99A254",
"W. c #9AA255",
"Q. c #9AA355",
"!. c #9BA355",
"~. c #9CA455",
"^. c #9DA456",
/* pixels */
"[ [ [ [ [ [ [ [ [ [ [ [ [ [ [ [ [ [ [ [ [ [ [ [ [ [ [ [ [ [ [ [ ",
"[ [ [ [ [ [ [ [ [ [ [ [ [ [ [ [ [ [ [ [ [ [ [ [ [ [ [ [ [ [ [ [ ",
"[ [ [ [ [ [ [ [ [ [ [ [ [ [ [ [ [ [ [ [ [ [ [ [ [ [ [ [ [ [ [ [ ",
"[ [ [ [ [ [ [ [ [ [ [ [ [ [ [ [ [ [ [ [ [ [ [ [ [ [ [ [ [ [ [ [ ",
"[ [ [ [ [ [ [ [ [ [ [ [ [ [ [ [ [ [ [ [ [ [ [ [ [ [ [ [ [ [ [ [ ",
"[ [ [ [ [ [ [ [ [ [ [ [ [ [ [ [ [ [ [ [ [ [ [ [ [ [ [ [ [ [ [ [ ",
"[ [ [ [ [ [ [ [ [ [ [ [ [ [ [ [ [ [ [ [ [ [ [ [ [ [ [ [ [ [ [ [ ",
"[ [ [ [ [ [ [ [ [ [ [ [ [ [ [ [ [ [ [ [ [ [ [ [ [ [ [ [ [ [ [ [ ",
"[ [ [ [ [ [ [ [ [ [ [ [ [ [ [ :.1._ *.t.[ [ [ [ [ [ [ [ [ [ [ [ ",
"[ [ [ [ [ [ [ [ [ [ [ 8. . .:.T.:.P s.U.[ [ [ [ [ [ [ [ [ [ [ [ ",
"[ [ [ [ [ [ [ [ ] ] *.U.8.E 2.^.E m ~.s.P _ :.1.*.[ [ [ [ [ [ [ ",
"[ [ [ [ [ [ [ [ *.*.] U.E.x ! y./ F t.*.# *.U.E.:.[ [ [ [ [ [ [ ",
"[ [ [ [ [ [ [ :.U.U.*.s.s.B O % r i - O - f.E.T.:.] [ [ [ [ [ [ ",
"[ [ [ [ [ [ [ :.T.E.s.x z i h d v.B.f a - f.j.B E ] [ [ [ [ [ [ ",
"[ [ [ [ [ [ [ E P E.U.% 9 B.K.S.H.L.S.Z.i B b *.s.*.[ [ [ [ [ [ ",
"[ [ [ [ [ [ *.8./ P P r c.K.L.P.P.L.P.L.N.r o t.~.s.*.[ [ [ [ [ ",
"| _ _ | [ *.s.~.y.  3 c.K.P.P.P.P.P.P.P.P.N.r ^ 1.8.1._ | | _ | ",
"| | | ] [ 1.t.1. .4 l.L.P.P.P.P.P.P.P.P.L.Z.3.M _ 1.*.| _ | _ | ",
"_ | ] | [ *.E % 1 h K.L.P.P.P.P.P.P.P.P.H.k : y.E.U.2._ | _ | | ",
"_ | ] ] _ 1.U.s.9.: h K.P.P.P.P.P.P.L.P.K.k : 8.E.2.} _ | | | _ ",
"| | | _ [ [ 8.~.y.o , 5.K.P.P.P.P.H.k.v.P.H.g 1 z E ] | _ _ | | ",
"| _ | | [ [ *.*.P  .o.1 6.L.Z.v.v.3., 6 v.v.q / *.2.1.] | | | _ ",
"_ | _ | [ [  ./ ) ~.j.- 2 6.3.3 8 Q E U 8 6 o s.Q.s.1._ | | | _ ",
"| | _ | [ [ [ 7.E.j.y.P m r D C - A ~.y.X m m  .2.:._ | _ _ | | ",
"| _ | | _ _ | 1.U.s.*.U.E.b  .^._ P Q.2.x U.U.b E | | | _ _ | | ",
"| | _ | | | ] _ | | ] U.U.b *.E.2.:.s.| _ U.E.*._ _ _ | | | | _ ",
"_ _ | | | | | _ _ | ] U.1._ s.t.| | | | | :.U.*.| _ | | | | | _ ",
"| | | _ _ _ | | | | _ 1._ ] *.| | _ | _ | _ :.| | | | _ _ _ | | ",
"_ | | | | | | _ | _ | ] | _ _ | } | _ | | | _ | _ | | | | | | _ ",
"| | _ _ | _ | | | _ | _ | | | | _ | _ | _ | | ] | | _ _ | _ | | ",
"| _ | | _ | _ | | | _ | _ | | _ | _ | | _ | | | | _ | | _ | _ | ",
"| | _ | | | _ | _ | | | _ | | _ | | | _ | | _ _ | | _ | | | _ | "
};
