/* XPM */
static char *_46032c3b3c24ba4c13550155747f397hLlSZ8M7BVxUjBmF[] = {
/* columns rows colors chars-per-pixel */
"32 32 165 2 ",
"   c #4C3C35",
".  c #4E3B3D",
"X  c #523E37",
"o  c #533D3E",
"O  c #3D4B3A",
"+  c #3E503E",
"@  c #4C4437",
"#  c #4C4439",
"$  c #54433B",
"%  c #5A453D",
"&  c #5D493E",
"*  c #41533E",
"=  c #56523F",
"-  c #60463C",
";  c #6E4F3B",
":  c #624A3C",
">  c #6E513D",
",  c #77533B",
"<  c #78563A",
"1  c #7F5A3D",
"2  c #4F3D40",
"3  c #533E41",
"4  c #583F40",
"5  c #3D4F43",
"6  c #3E5441",
"7  c #3F5C43",
"8  c #4E4542",
"9  c #4E4946",
"0  c #4E4D4A",
"q  c #564143",
"w  c #5A4344",
"e  c #564B45",
"r  c #5D4A42",
"t  c #5D4648",
"y  c #5B4E49",
"u  c #445543",
"i  c #4F5344",
"p  c #415B44",
"a  c #4D5C46",
"s  c #41544F",
"d  c #4C524D",
"f  c #455D4D",
"g  c #4B5E4B",
"h  c #525344",
"j  c #585047",
"k  c #54574B",
"l  c #455F55",
"z  c #614D42",
"x  c #614749",
"c  c #64494A",
"v  c #6A4D4D",
"b  c #645247",
"n  c #6E5747",
"m  c #665449",
"M  c #6A574C",
"N  c #6B5A4C",
"B  c #745D4E",
"V  c #7A5E4C",
"C  c #755F51",
"Z  c #785F52",
"A  c #4D634D",
"S  c #476B4F",
"D  c #4E6A4D",
"F  c #50634F",
"G  c #52694E",
"H  c #476053",
"J  c #4F6751",
"K  c #4A6D51",
"L  c #47625E",
"P  c #49635F",
"I  c #447753",
"U  c #4B7354",
"Y  c #447D55",
"T  c #457F58",
"R  c #4B7E59",
"E  c #527452",
"W  c #527955",
"Q  c #75604F",
"!  c #756252",
"~  c #7B6555",
"^  c #7C6856",
"/  c #7D6B59",
"(  c #687D5C",
")  c #7C745B",
"_  c #727B5E",
"`  c #7A7C5F",
"'  c #4E706E",
"]  c #517473",
"[  c #7F7C60",
"{  c #825D3C",
"}  c #8E643D",
"|  c #93663E",
" . c #96693E",
".. c #9F713F",
"X. c #81674D",
"o. c #86694D",
"O. c #936840",
"+. c #9A734B",
"@. c #816554",
"#. c #806857",
"$. c #836958",
"%. c #846A59",
"&. c #866D5A",
"*. c #826E5A",
"=. c #8B6E59",
"-. c #84725E",
";. c #8D725E",
":. c #8B705D",
">. c #957558",
",. c #A17641",
"<. c #A57B43",
"1. c #A97E42",
"2. c #A47A4B",
"3. c #897661",
"4. c #8D7A64",
"5. c #937762",
"6. c #947862",
"7. c #46855A",
"8. c #4B835A",
"9. c #4D8B5E",
"0. c #578B53",
"q. c #5E8D53",
"w. c #52875E",
"e. c #558A5E",
"r. c #588C5E",
"t. c #5D9559",
"y. c #608651",
"u. c #669D57",
"i. c #699C55",
"p. c #629E5B",
"a. c #4B8F60",
"s. c #4C8F60",
"d. c #4F8E60",
"f. c #4C8E60",
"g. c #538C60",
"h. c #4C9161",
"j. c #4D9262",
"k. c #4D9363",
"l. c #4E9061",
"z. c #4D9262",
"x. c #AF8344",
"c. c #AE8243",
"v. c #B18545",
"b. c #9A876E",
"n. c #A78C68",
"m. c #A18E72",
"M. c #A59476",
"N. c #AB9170",
"B. c #A39976",
"V. c #A79578",
"C. c #AA9678",
"Z. c #AD9B7C",
"A. c #B19770",
"S. c #B19E7E",
"D. c #AFA07E",
"F. c #B2A27F",
"G. c #B0A87F",
"H. c #B39E80",
"J. c #AEA380",
"K. c #B6A282",
"L. c #BBA684",
"P. c #B5AC83",
"I. c #BEAC86",
"U. c #BFAD88",
"Y. c #C2B088",
/* pixels */
"j.j.j.j.j.j.j.j.s.k.k.k.k.k.' D U h.j.j.j.j.j.f.Y 7.h.j.j.j.j.j.",
"j.j.j.j.j.j.j.j.k.k.k.s.s.K y v y A j.j.j.j.j.j.h.h.j.j.j.j.j.j.",
"j.j.j.j.j.j.j.j.s.k.k.k.K 3 c v c w A 9.j.j.j.j.Y 7.h.j.j.j.j.j.",
"j.j.j.j.j.j.j.j.k.k.z.K w w 3 3 q w q A f.j.j.Y 7.7.7.k.j.j.j.j.",
"j.j.j.j.j.j.j.j.z.z.S 3 q 2 4 w o o q w f j.j.s.Y 7.k.g.j.j.j.j.",
"j.j.j.j.j.j.j.j.z.K 2 t 3 4 4 w o q 3 w . g w._ _ [ [ r.j.j.j.j.",
"j.j.j.j.j.j.j.j.S q q q w o 2 3 o o q w o o &.;.*.*.;.y.9.j.j.j.",
"j.j.j.j.j.j.s.U t w 3 t q 3 t t w w q w o q %.~ M M / -.j.j.j.j.",
"j.j.j.j.j.j.S x w 3 3 w 3 q q t q q 3 w 3 4 %.#.~ ~ ~ [ f.s.z.z.",
"j.j.j.j.j.K . c 3 w 3 2 4 3 q t q 3 4 3 w x B ;.5.5.:.( d.s.z.z.",
"j.j.j.j.J o 3 3 4 t 3 4 3 q w x w q 3 q 3 x w @.:.%./ g.z.z.z.z.",
"j.j.j.K 3 4 . w 3 2 3 4 3 w q t w w 3 4 3 4 4 Z $.$.Z J s.z.z.z.",
"j.j.S 3 3 3 3 3 3 q 3 q w $ % o q $ w c 3 t q ~ %.=.@.x g z.k.k.",
"j.K . t 3 t 3 w x 3 3 w w z $ @ $ r & c 2 q w c Z &.~ v 3 g z.k.",
"j.i 3 3 w 3 3 v t 3 . r r ^ m $ $ 3.& z . q q v 4 &.~ q 3 q z.z.",
"h.i . v t 3 3 x 3 . % & C S.V } r Y.*.z z 3 3 t 3 c C t 3 3 z.z.",
"p.J . v w q 4 q q % : M Z.+.| c.| O.N.^ z & o 4 3 q 4 4 4 k f.k.",
"q.y 3 w 3 3 2 t & & r F.A.2.c.c.x.<.n.U.M & & % 2 3 3 4 3 v U k.",
"t.e 2 o 4 t 4 r $   % &.| <.c.v.1.1.O.>.z   $ r 3 t w v 3 w 8.z.",
"q.q 3 q 4 w r z ~ -.$ $ X.2.1.<.<.<.o.& $ N 3.& z t w c 3 4 K z.",
"J q 3 . q r & N K.L.^ $ : ..1.x.1.,.> $ b L.F.$.r r q q . 4 i k.",
"U 2 . t & r m Z.D.Z.P.! ; { , ,.{ ; < n S.Z.C.S.! & r w 3 . J k.",
"R w $ z & $ ! Q B C B / $ % $ V - q $ ! B B B Q ~ $ & z q w U f.",
"f.u r r $ b b m m m b % X @ @ 8 # # $ % b m m m M m $ % r   8.z.",
"j.s.A   % C.I.S.L.H.Y.3.$ O 6 5 6 O # ~ Y.S.Y.L.D.F.b   u 9.h.k.",
"j.s.j.  j M.M.Z.C.C.Z.&.$ O P ] ] O # ^ M.Z.C.V.C.S.m   e.h.k.k.",
"j.j.j.$ b Z.: r y e ^ -.$ O L ] ' O # $.&.% j e $ L.b $ i.j.h.k.",
"j.j.j.h $ m.r 9 d 8 ^ -.$ p H l f u # / -.$ d 9 $ S.X = i.h.k.h.",
"j.j.j.a X n.r 9 e 8 ~ 3.$ f f 7 + + # -.*.$ 0 0 $ F.@ h u.j.j.j.",
"j.j.j.a $ / b.^ / ^ Z.-.$ + + 7 6 6 # ! P.~ ^ / b.5.X h 9.j.j.j.",
"j.j.h.9.$ v B.P.G.G.F.) $ + A + 7 * @ ! G.Z.P.D.P.M $ D j.j.j.j.",
"j.j.h.9.G E e.g.e.r.e.W G Y q.0.7.Y D W e.r.e.e.e.W G 8.j.j.j.j."
};
