/* XPM */
static char *_77fc7cc37b242a088b14d4a4390dfe08p3N0fzR7LASDRAn[] = {
/* columns rows colors chars-per-pixel */
"32 32 39 1 ",
"  c black",
". c #0B0C23",
"X c #14182E",
"o c #29652F",
"O c #313265",
"+ c #437E55",
"@ c #447F56",
"# c #E64539",
"$ c #AD2F45",
"% c #BE6053",
"& c #76BE37",
"* c #468459",
"= c #47865B",
"- c #48875B",
"; c #5A9B5E",
": c #5F9E5D",
"> c #609F5D",
", c #65A25B",
"< c #66A35B",
"1 c #63A15C",
"2 c #6BA659",
"3 c #6AA55A",
"4 c #6FA958",
"5 c #79AF55",
"6 c #4B8F60",
"7 c #4B9162",
"8 c #4C9060",
"9 c #4C9061",
"0 c #4C9161",
"q c #4F9361",
"w c #4C9162",
"e c #4C9262",
"r c #4D9262",
"t c #4D9362",
"y c #4D9263",
"u c #4D9363",
"i c #FFC2A1",
"p c #B9BACA",
"a c #CECFE0",
/* pixels */
"rrrrrrrrrrrrrrrrrrrrrrr6+*rrrrrr",
"rrrrrrrrrrrrrrppprrraaar87rrrrrr",
"rrrXXrXXrrrrrrpppprraaaa+*urrrrr",
"rrX##X$$Xrrrrrrppprrraaa-@*urrrr",
"rrX#i##$Xrrrrrrpppprrraaa*rrrrrr",
"rrX####$Xrrrrrrrppprrraaa6rrrrrr",
"rrrX##$Xrrrrrrrrppprrraaarrrrrrr",
"rrrrX$Xrrrrrrrrrppp3rraaarrrrrrr",
"rrrrrXr7rrrrrrrrrpp52raaarrrrrrr",
"rrrrrr;,r .......pp... aarrrrrrr",
"rrrrr7>4 &&&&&&&&&pp&&&aa7rrrrrr",
"rrrrr7: &&&&&&&&&&ppaaaaarrrrrrr",
"rrrrr7 &&&oooooooopaaaaaa rrrrrr",
"rrrrr &&&oOOOOOOOOaaaaaaa& rrrrr",
"rrrr &&&oOOOOOOOOaaaaaaaa&  rrrr",
"7rr &&&oO%%%%%%%% aaa aaa&&  rrr",
"1q &&&oOO%%%%%%%a aaa aaao&& rrr",
"< &&&oO%%%%%%%%%aaaaaaaaaOo&& .r",
" &&&oOO%%%%%%%%%aaaaaaaapOoo&& r",
" &&ooO%%%%       aaaaaappaaao&& ",
" &oOO%%%% %%%%%%%%aaaappaaaaao& ",
" oOO%%%% %%%%%%%%%appppaaaaaaao ",
" O%%%%% %%%%%%%%%%aapaaaaaaaaaa ",
" O%%%%% %%%%%%%%%%aaaaaaaaaaaaa ",
" %%%%%% %%%%%%%%%%aaaaaaaaaaaaa ",
" %%%%%% %%%%%%%%%%aaaaaaaaaaaaa ",
" %%%%%% %%%%%%%%%%aaaaaaaaaaaaaa",
" %%%%%% %%%%%%%%%%aaaaaaaaaaaaaa",
" %%%%%% %%%%%%%%%%aaapaaaaaaaaa ",
" %%%%%% %%%%%%%%%%aaapaaaaaaaaa ",
" %%%%%% %%%%%%%%%%aaapapaaaaaa% ",
"                   appaaaapppa  "
};
