/* XPM */
static char *_3386011ca7c40f5c38d9951195bb44egOhKwsasn7BdbIqB[] = {
/* columns rows colors chars-per-pixel */
"32 32 85 1 ",
"  c #427C54",
". c #437C54",
"X c #437D55",
"o c #437E55",
"O c #447F56",
"+ c #478054",
"@ c #45835A",
"# c #468459",
"$ c #478559",
"% c #45845A",
"& c #47865B",
"* c #488558",
"= c #48875B",
"- c #49895C",
"; c #498A5D",
": c #4A8B5E",
"> c #4B8E5F",
", c #4E8E5D",
"< c #4D8F5F",
"1 c #558950",
"2 c #548A50",
"3 c #558A51",
"4 c #5B9051",
"5 c #56985F",
"6 c #57995F",
"7 c #599A5F",
"8 c #5A9B5E",
"9 c #5B9C5E",
"0 c #5D9D5D",
"q c #5F9E5D",
"w c #669C52",
"e c #609F5C",
"r c #619F5C",
"t c #609E5D",
"y c #609F5D",
"u c #66A158",
"i c #65A25B",
"p c #66A35B",
"a c #67A35B",
"s c #67A45A",
"d c #61A05C",
"f c #62A05C",
"g c #63A05C",
"h c #63A15C",
"j c #6AA659",
"k c #6BA659",
"l c #69A55A",
"z c #6AA55A",
"x c #6AA65A",
"c c #6DA859",
"v c #6FA958",
"b c #6EA859",
"n c #75AC55",
"m c #75AD56",
"M c #76AE56",
"N c #79AF55",
"B c #7AB055",
"V c #7BB156",
"C c #7CB154",
"Z c #4B8E60",
"A c #4B8F60",
"S c #4C8F60",
"D c #4B9162",
"F c #4C9060",
"G c #4C9061",
"H c #4C9161",
"J c #4D9161",
"K c #4F9361",
"L c #4C9162",
"P c #4D9162",
"I c #4C9262",
"U c #4D9262",
"Y c #4D9362",
"T c #4D9263",
"R c #4D9363",
"E c #4E9262",
"W c #4E9362",
"Q c #4F9461",
"! c #509461",
"~ c #519561",
"^ c #529561",
"/ c #529660",
"( c #539660",
") c #509562",
"_ c #559760",
/* pixels */
"UUUUUUUUUUUUUUUUUUUUUUUZo#UUUUUU",
"UUUUUUUUUUUUUUUUUUUUUUUUFDUUUUUU",
"UUUUUUUUUUUUUUUUUUUUUUUUo#RUUUUU",
"UUUUUUUUUUUUUUUUUUUUUUU =O#RUUUU",
"UUUUUUUUUUUUUUUUUUUUUUUZo#UUUUUU",
"UUUUUUUUUUUUUUUUUUUUUUUU>ZUUUUUU",
"UUUUUUUUUUUUUUUUUUUUUUUUUUUUUUUU",
"UUUUUUUUUUUUUUUUUU5zUUUUUUUUUUUU",
"UUUUUUUUUUUUUUUUUU8Bk!UUUUUUUUUU",
"UUUUUD8iUUUUUUUUUU_CmRUa5UUUUUUU",
"UUUUUDdvUUUUUUUUUU<imOuC8UUUUUUU",
"UUUUUDqb/iUUUUUUUU!F1wN4,UUUUUUU",
"UUUUUDqv5m!UUUUUUUUU#33#ZUUUUUUU",
"UUUUUU_85mUUUUUUUUUUU#@UUUUUUUUU",
"UUUUUUDU/qUUUUUUUUUUURUUUUUUUUUU",
"DUUUUUUUUDUUUUUUUUUUUUUUUUUUUUUU",
"g!DUUUUUUUUUUUUUUUUUUUUUUUUUUUUU",
"gd/DUUUUUUUUUUUUUUUUUUUUUUUUUUUU",
"dz5DUUUUUUUUUUUUUUUUUUUUUUUUUUUU",
"z/UUUUUUUUUUUUUUUUUUUUUUUUUUUUUU",
"DUUUUUUUUUUUUUUUUUUUUUUUUUUUUUUU",
"UUUUUUUUUUURUUUUUUUUUUUUUUUUUUUU",
"UUUUUUUUUUU-UUUUUUUUUUUUUUUUUUUU",
"UUUUUUUUUU-o#UUUUUUUUUUUUUUUUUUU",
"UUUUUUUUUZ - -UUUUUUUUUUUUUUUUUU",
"UUUUUUUUUUU SUUUUUUUUUUUUUU//UUU",
"UUUUUUUUUUUUUUUUUUUUUUUUU/UrkSUU",
"UUUUUUUUUUUUUUUUUUUUUUUUUzrrbUUU",
"UUUUUUUUUUUUUUUUUUUUUUUUDzdqxUUU",
"UUUUUUUUUUUUUUUUUUUUUUUUDzrUTUUU",
"UUUUUUUUUUUUUU/UUUUUUUUUUUUUUUUU",
"UUUUUUUUUUUUUUzdUUUUUUUUUUUUUUUU"
};
