/* XPM */
static char *b4fa1cec1def406fc280cda99818648f2f4aK7DuWk2THb7O[] = {
/* columns rows colors chars-per-pixel */
"32 32 85 1 ",
"  c None",
". c #427C54",
"X c #437C54",
"o c #437D55",
"O c #437E55",
"+ c #447F56",
"@ c #478054",
"# c #45835A",
"$ c #468459",
"% c #478559",
"& c #45845A",
"* c #47865B",
"= c #488558",
"- c #48875B",
"; c #49895C",
": c #498A5D",
"> c #4A8B5E",
", c #4B8E5F",
"< c #4E8E5D",
"1 c #4D8F5F",
"2 c #558950",
"3 c #548A50",
"4 c #558A51",
"5 c #5B9051",
"6 c #56985F",
"7 c #57995F",
"8 c #599A5F",
"9 c #5A9B5E",
"0 c #5B9C5E",
"q c #5D9D5D",
"w c #5F9E5D",
"e c #669C52",
"r c #609F5C",
"t c #619F5C",
"y c #609E5D",
"u c #609F5D",
"i c #66A158",
"p c #65A25B",
"a c #66A35B",
"s c #67A35B",
"d c #67A45A",
"f c #61A05C",
"g c #62A05C",
"h c #63A05C",
"j c #63A15C",
"k c #6AA659",
"l c #6BA659",
"z c #69A55A",
"x c #6AA55A",
"c c #6AA65A",
"v c #6DA859",
"b c #6FA958",
"n c #6EA859",
"m c #75AC55",
"M c #75AD56",
"N c #76AE56",
"B c #79AF55",
"V c #7AB055",
"C c #7BB156",
"Z c #7CB154",
"A c #4B8E60",
"S c #4B8F60",
"D c #4C8F60",
"F c #4B9162",
"G c #4C9061",
"H c #4C9161",
"J c #4D9161",
"K c #4F9361",
"L c #4C9162",
"P c #4D9162",
"I c #4C9262",
"U c #4D9262",
"Y c #4D9362",
"T c #4D9263",
"R c #4D9363",
"E c #4E9262",
"W c #4E9362",
"Q c #4F9461",
"! c #509461",
"~ c #519561",
"^ c #529561",
"/ c #529660",
"( c #539660",
") c #509562",
"_ c #559760",
/* pixels */
"                                ",
"UUUUUUUUUUUUUUUUUUUUUUUUUUUUUUUU",
"UUUUUUUUUUUUUUUUUUUUUUUU.*UUUUUU",
"UUUUUUUUUUUUUUUUUUUUUUU.-@&RUUUU",
"UUUUUUUUUUUUUUUUUUUUUUUAO&UUUUUU",
"UUUUUUUUUUUUUUUUUUUUUUUU1AUUUUUU",
"UUUUUUUUUUUUUUUUUUUUUUUUUUUUUUUU",
"UUUUUUUUUUUUUUUUUU6xUUUUUUUUUUUU",
"UUUUUUUUUUUUUUUUUF9Bl!UUUUUUUUUU",
"UUUUUF9pUUUUUUUUUF9ZMUUs7FUUUUUU",
"UUUUUFfbUUUUUUUUUU/gM+pZ9UUUUUUU",
"UUUUUFwn/pUUUUUUUUU<2eV51UUUUUUU",
"UUUUUFwb6M!UUUUUUUUD&44=1UUUUUUU",
"UUUUUU_96MUUUUUUUUUUU&#DUUUUUUUU",
"UUUUUUFU/wUUUUUUUUUUUTUUUUUUUUUU",
"FUUUUUUUUFUUUUUUUUUUUUUUUUUUUUUU",
"g!FUUUUUUUUUUUUUUUUUUUUUUUUUUUUU",
"pt/UUUUUUUUUUUUUUUUUUUUUUUUUUUUU",
"yx6FUUUUUUUUUUUUUUUUUUUUUUUUUUUU",
"xWFUUUUUUUUUUUUUUUUUUUUUUUUUUUUU",
"UUUUUUUUUUUUUUUUUUUUUUUUUUUUUUUU",
"UUUUUUUUUUUWUUUUUUUUUUUUUUUUUUUU",
"UUUUUUUUUUU>UUUUUUUUUUUUUUUUUUUU",
"UUUUUUUUUF>.=FUUUUUUUUUUUUUUUUUU",
"UUUUUUUUUD.-.>UUUUUUUUUUUUUUUUUU",
"UUUUUUUUUUU.1UUUUUUUUUUUUUU//UUU",
"UUUUUUUUUUUUUUUUUUUUUUUUU/UylUUU",
"UUUUUUUUUUUUUUUUUUUUUUUUUxhynUUU",
"UUUUUUUUUUUUUUUUUUUUUUUUFxfwxUUU",
"UUUUUUUUUUUUUUUUUUUUUUUUFxyUUUUU",
"UUUUUUUUUUUUUU/UUUUUUUUUUWUUUUUU",
"UUUUUUUUUUUUUUxfFUUUUUUUUUUUUUUU"
};
