/* XPM */
static char *f629b2f0209043fcf1d3a32172acfc51tvL0sgJvr5nzXlMR[] = {
/* columns rows colors chars-per-pixel */
"32 32 41 1 ",
"  c black",
". c #0B0C23",
"X c #14182E",
"o c #29652F",
"O c #313265",
"+ c #437E55",
"@ c #447F56",
"# c #E64539",
"$ c #AD2F45",
"% c #BE6053",
"& c #76BE37",
"* c #468459",
"= c #47865B",
"- c #48875B",
"; c #5A9B5E",
": c #5F9E5D",
"> c #609F5D",
", c #65A25B",
"< c #66A35B",
"1 c #63A15C",
"2 c #6BA659",
"3 c #6AA55A",
"4 c #6FA958",
"5 c #79AF55",
"6 c #4B8F60",
"7 c #4B9162",
"8 c #4C9060",
"9 c #4C9061",
"0 c #4C9161",
"q c #4F9361",
"w c #4C9162",
"e c #4C9262",
"r c #4D9262",
"t c #4D9362",
"y c #4D9263",
"u c #4D9363",
"i c #AF947E",
"p c #FFC2A1",
"a c #B9BACA",
"s c #E5DBC9",
"d c #CECFE0",
/* pixels */
"rrrrrrrrrrrrrrrrrrrrrrr6+*rrrrrr",
"rrrrrrrrrrrrrraaarrrdddr87rrrrrr",
"rrrXXrXXrrrrrraaaarrdddd+*urrrrr",
"rrX##X$$Xrrrrrraaarrrddd-@*urrrr",
"rrX#p##$Xrrrrrraaaarrrddd*rrrrrr",
"rrX####$Xrrrrrrraaarrrddd6rrrrrr",
"rrrX##$Xrrrrrrrraaarrrdddrrrrrrr",
"rrrrX$Xrrrrrrrrraaa3rrdddrrrrrrr",
"rrrrrXr7rrrrrrrrraa52rdddrrrrrrr",
"rrrrrr;,r .......aa... ddrrrrrrr",
"rrrrr7>4 &XX&XX&&&aa&&&dd7rrrrrr",
"rrrrr7: &X##X$$X&&aadddddrrrrrrr",
"rrrrr7 &&X#p##$Xooadddddd rrrrrr",
"rrrrr &&&X####$XOOddddddd& rrrrr",
"rrrr &&&oOX##$XOOdddddddd&  rrrr",
"7rr &&&oO%%X$X%%% ddd ddd&&  rrr",
"1q &&&oOO%%%X%%%d ddd dddo&& rrr",
"< &&&oO%%%%%%%%%dddddddddOo&& .r",
" &&&oOO%%%%%%%%%ddddddddaOoo&& r",
" &&ooO%%%%  .....ddddddaadddo&& ",
" &oOO%%%% %.ss.ss.ddddaadddddo& ",
" oOO%%%% %%.ssiss.daaaadddddddo ",
" O%%%%% %%%.ssiss.ddadddddddddd ",
" O%%%%% %%%.ssiss.ddddddddddddd ",
" %%%%%% %%..ssssss.dddddddddddd ",
" %%%%%% %.ssss.ss.s.ddddddddddd ",
" %%%%%% .sssss.ss.s.dddddddddddd",
" %%%%%%.sssssssssss.dddddddddddd",
" %%%%%.ssssssssss..ddaddddddddd ",
" %%%...sssssissss.dddaddddddddd ",
" %%.ss.sssssissis.dddadadddddd% ",
"   .ssssssssissis. daaddddaaad  "
};
