/* XPM */
static char *_dfbbd8e5de44732c7094c717be9df960BYwTbuW5xl6xEUG[] = {
/* columns rows colors chars-per-pixel */
"32 32 46 1 ",
"  c #2F2F2E",
". c #3B3B39",
"X c #4F4F4E",
"o c #427C54",
"O c #437D55",
"+ c #437E55",
"@ c #447F56",
"# c #9D5021",
"$ c #D67941",
"% c #468459",
"& c #47865B",
"* c #48875B",
"= c #4B8E5F",
"- c #5A9B5E",
"; c #5D9D5D",
": c #619F5C",
"> c #609E5D",
", c #609F5D",
"< c #65A25B",
"1 c #66A35B",
"2 c #67A45A",
"3 c #62A05C",
"4 c #63A15C",
"5 c #6AA659",
"6 c #69A55A",
"7 c #6AA55A",
"8 c #6DA859",
"9 c #4B8F60",
"0 c #4B9162",
"q c #4C9060",
"w c #4C9061",
"e c #4C9161",
"r c #4F9361",
"t c #4C9162",
"y c #4C9262",
"u c #4D9262",
"i c #4D9362",
"p c #4D9363",
"a c #4E9262",
"s c #4E9362",
"d c #509461",
"f c #519561",
"g c #529561",
"h c #539660",
"j c gray72",
"k c white",
/* pixels */
"uuuuuuuuuuuuuuuuuuuuuuu9o%uuuuuu",
"uuuuuuuuuuuuuuuuuuuuuuuuuuuuuuuu",
"uuuuuuuuuuuuuuuuuuuuuuuuo%uuuuuu",
"uuuuuuuuuuuuuuuuuuu   uo*%%uuuuu",
"uuuuuuuuuuuuuuuuuuu   u=o%9uuuuu",
"uuuuuuuuuuuuuuuuuu ## uu99    uu",
"uuuuuuuuuuuuuuuuuu ## uuuu    uu",
"uuuuuuuuuuuuuuuu  #kk uu  #$$ uu",
"   uuuu0uuuuuuuu  #kk        uuu",
"   uuu-<uuuuuuuu  #kk        uuu",
"  j     uuuuuuuu  ###$$$$$$  uuu",
"  jkkk$$  uuuuuu  ###$  ##### uu",
"  jkkk$$  uuuuuu  ###$  ##### uu",
"uu jj#$$$$ uuu  #####$$$$$$     ",
"uu jj#$$$$ uuu  #####$$$$$$     ",
"0uu  #$$$$$  u  jjjkkkkkkkkkkk  ",
"<uu  ###$$$        jjjkkkkk   uu",
"<4g  ###$$$        jjjkkkkk   uu",
"4<guu #### ########        uuuuu",
"6r9uu #### ########        uuuuu",
"uuuuuu    ######$$$$$$kkkk uuuuu",
"uuuuuuuu  ####$$$$$##jjj   uuuuu",
"uuuuuuuu  ####$$$$$##jjj   uuuuu",
"uuuuuuuu  #       $     ## uuuuu",
"uuuuuuuu  .  .    X  u  XX uu00u",
"uuuuuuuu  .  .    X  u  XX g-0uu",
"uuuuuuuu   uu uuuu   uuu   >8uuu",
"uuuuuuuu   uu uuuu   uuu   >80uu",
"uuuuuuuuuuuuuuuuuuuuuuuuu6>;6uuu",
"uuuuuuuuuuuuuuuuuuuuuuuuu24uuuuu",
"uuuuuuuuuuuuuudduuuuuuuuuuuuuuuu",
"uuuuuuuuuuuuuu6:uuuuuuuuuuuuuuuu"
};
