/* XPM */
static char *a96c894a03074099874ddeb95c8e8bb719Ih75PTCJQqUaPI[] = {
/* columns rows colors chars-per-pixel */
"32 32 75 1 ",
"  c #2F2F2E",
". c #3B3B39",
"X c #4F4F4E",
"o c #427C54",
"O c #437C54",
"+ c #437D55",
"@ c #437E55",
"# c #447F56",
"$ c #9D5021",
"% c #D67941",
"& c #468459",
"* c #47865B",
"= c #488558",
"- c #48875B",
"; c #49895C",
": c #4A8B5E",
"> c #4B8E5F",
", c #4E8E5D",
"< c #5B9051",
"1 c #56985F",
"2 c #57995F",
"3 c #599A5F",
"4 c #5A9B5E",
"5 c #5B9C5E",
"6 c #5D9D5D",
"7 c #5F9E5D",
"8 c #609F5C",
"9 c #619F5C",
"0 c #609E5D",
"q c #609F5D",
"w c #66A158",
"e c #65A25B",
"r c #66A35B",
"t c #67A35B",
"y c #67A45A",
"u c #62A05C",
"i c #63A05C",
"p c #63A15C",
"a c #6AA659",
"s c #6BA659",
"d c #69A55A",
"f c #6AA55A",
"g c #6AA65A",
"h c #6DA859",
"j c #6FA958",
"k c #6EA859",
"l c #75AD56",
"z c #79AF55",
"x c #7BB156",
"c c #4B8E60",
"v c #4B8F60",
"b c #4C8F60",
"n c #4B9162",
"m c #4C9060",
"M c #4C9061",
"N c #4C9161",
"B c #4F9361",
"V c #4C9162",
"C c #4C9262",
"Z c #4D9262",
"A c #4D9362",
"S c #4D9263",
"D c #4D9363",
"F c #4E9262",
"G c #4E9362",
"H c #4F9461",
"J c #509461",
"K c #519561",
"L c #529561",
"P c #529660",
"I c #539660",
"U c #509562",
"Y c #559760",
"T c gray72",
"R c white",
/* pixels */
"ZZZZZZZZZZZZZZZZZZZZZZZvo&ZZZZZZ",
"ZZZZZZZZZZZZZZZZZZZZZZZZnZZZZZZZ",
"ZZZZZZZZZZZZZZZZZZZZZZZZo&ZZZZZZ",
"ZZZZZZZZZZZZZZZZZZZZZZZo-&&ZZZZZ",
"ZZZZZZZZZZZZZZZZZZZZZZZ>o&vZZZZZ",
"ZZZZZZZZZZZZZZZZZZZZZZZZ>ZZZZZZZ",
"ZZZZZZZZZZZZZZZZZZZZZZZZZZZZZZZZ",
"ZZZZZZZZZZZZZZZZZZ1dZZZZZZZZZZZZ",
"ZZZZZZZnZZZZZZZZZZ4zsJZZZZZZZZZZ",
"ZZZZZn4eZZZZZZZZZv4  ZZt1ZZZZZZZ",
"ZZZZZnujnZZZZZ   Z $% ex4ZZZZZZZ",
"ZZZZZn7kLyZZZZ $% Z R% <,ZZZZZZZ",
"ZZZZZn7j1lZZZZZ     R% =vZZZZZZZ",
"ZZZZZZY51lLZZZZ $$$$%% bZZZZZZZZ",
"ZZZZZZn   ZZZZ $$$ %%% ZZZZZZZZZ",
"nZZZZZ %%% ZZ   $$%%%%% ZZZZZZZZ",
"eZnZZ %%%%% Z TTTRRRRRR ZZZZZZZZ",
"euLn TT$$%%     TTRRR  ZZZZZZZZZ",
"uy1n TT  $ $$$$$     ZZZZZZZZZZZ",
"dLZZ T ZZ $$$$%%%%RR ZZZZZZZZZZZ",
"nZZZ  ZZZ $$$%%%$TT  ZZZZZZZZZZZ",
"ZZZZZZZZZ $    %   $ ZZZZZZZZZZZ",
"ZZZZZZZZZ . .  X Z X ZZZZZZZZZZZ",
"ZZZZZZZZZ  O ZZ  ZZ  ZZZZZZZZZZZ",
"ZZZZZZZZZ,o-o>AZZZZZZZZZZZZZZZZZ",
"ZZZZZZZZZZno>ZZZZZZZZZZZZZZL1nZZ",
"ZZZZZZZZZZZZZZZZZZZZZZZZZLZ0sZZZ",
"ZZZZZZZZZZZZZZZZZZZZZZZZnde0knZZ",
"ZZZZZZZZZZZZZZZZZZZZZZZZZdu7dZZZ",
"ZZZZZZZZZZZZZZZZZZZZZZZZZy0ZZZZZ",
"ZZZZZZZZZZZZZZLZZZZZZZZZZZZZZZZZ",
"ZZZZZZZZZZZZZZdunZZZZZZZZZZZZZZZ"
};
