/* XPM */
static char *_66ba6fabe434cf2d011fde083cb61c3LvXAltjJDq1oSaF2[] = {
/* columns rows colors chars-per-pixel */
"32 32 71 1 ",
"  c #2F2F2E",
". c #3B3B39",
"X c #4F4F4E",
"o c #427C54",
"O c #437C54",
"+ c #437D55",
"@ c #437E55",
"# c #447F56",
"$ c #9D5021",
"% c #D67941",
"& c #468459",
"* c #47865B",
"= c #488558",
"- c #48875B",
"; c #49895C",
": c #4A8B5E",
"> c #4B8E5F",
", c #4E8E5D",
"< c #5B9051",
"1 c #56985F",
"2 c #57995F",
"3 c #5A9B5E",
"4 c #5B9C5E",
"5 c #5D9D5D",
"6 c #5F9E5D",
"7 c #609F5C",
"8 c #619F5C",
"9 c #609E5D",
"0 c #609F5D",
"q c #65A25B",
"w c #66A35B",
"e c #67A45A",
"r c #61A05C",
"t c #62A05C",
"y c #63A05C",
"u c #63A15C",
"i c #6AA659",
"p c #6BA659",
"a c #69A55A",
"s c #6AA55A",
"d c #6AA65A",
"f c #6DA859",
"g c #6FA958",
"h c #6EA859",
"j c #76AE56",
"k c #79AF55",
"l c #7CB154",
"z c #4B8E60",
"x c #4B8F60",
"c c #4C8F60",
"v c #4B9162",
"b c #4C9060",
"n c #4C9061",
"m c #4C9161",
"M c #4D9161",
"N c #4F9361",
"B c #4C9162",
"V c #4C9262",
"C c #4D9262",
"Z c #4D9362",
"A c #4D9263",
"S c #4D9363",
"D c #4E9262",
"F c #4E9362",
"G c #4F9461",
"H c #509461",
"J c #519561",
"K c #529561",
"L c #539660",
"P c gray72",
"I c white",
/* pixels */
"CCCCCCCCCCCCCCCCCCCCCCCxo&CCCCCC",
"CCCCCCCCCCCCCCCCCCCCCCCCvCCCCCCC",
"CCCCCCCCCCCCCCCCCCCCCCCCo&CCCCCC",
"CCCCCCCCCCCCCCCCCCCCCCCo-&&CCCCC",
"CCCCCCCCCCCCCCCCCCCCCCC>o&xCCCCC",
"CCCCCCCCCCCCCCCCCCCCCCCC>CCCCCCC",
"CCCCCCCCCCCCCCCCCCCCCCCCCCCCCCCC",
"CCCCCCCCCCCCCCCCCC1sCCCCCCCCCCCC",
"CCCCCCCCCCCCCCCCC  kpCCCCCCCCCCC",
"CCCCCv3qCCCCCCCC $ lj   1CCCCCCC",
"CCCCCvrgCCCCCCC $I 8 $% 3CCCCCCC",
"CCCCCv6h qCCCCC $I     <,CCCCCCC",
"CCCCCv6 P HCCCC $$%%%% =xCCCCCCC",
"CCCCCC PI CCCCC $$% $$$ CCCCCCCC",
"CCCCCC $I CCCC $$$%%%%   CCCCCCC",
"vCCCCC $%% CCC PPIIIIIII CCCCCCC",
"qCvCCC $%%%      PPIII  CCCCCCCC",
"qqHCCC $%%$ $$$$$     CCCCCCCCCC",
"re1vCCC $$ $$$$%%%%II CCCCCCCCCC",
"sHCCCCCC   $$$%%%$PP  CCCCCCCCCC",
"vCCCCCCCCC $    %   $ CCCCCCCCCC",
"CCCCCCCCCC . .  X C X CCCCCCCCCC",
"CCCCCCCCCC  C CC  CC  CCCCCCCCCC",
"CCCCCCCCCC-o&CCCCCCCCCCCCCCCCCCC",
"CCCCCCCCC>o-o>CCCCCCCCCCCCCCCCCC",
"CCCCCCCCCCCo>CCCCCCCCCCCCCCH1vCC",
"CCCCCCCCCCCCCCCCCCCCCCCCCHH8pCCC",
"CCCCCCCCCCCCCCCCCCCCCCCCCsu9hvCC",
"CCCCCCCCCCCCCCCCCCCCCCCCCsr6sCCC",
"CCCCCCCCCCCCCCCCCCCCCCCCverCCCCC",
"CCCCCCCCCCCCCCCHCCCCCCCCCCCCCCCC",
"CCCCCCCCCCCCCCsuCCCCCCCCCCCCCCCC"
};
