/* XPM */
static char *_ba358c96e434efea571c70da9662d54UdyxkVE05tTm3n7B[] = {
/* columns rows colors chars-per-pixel */
"32 32 62 1 ",
"  c #2F2F2E",
". c #3B3B39",
"X c #4F4F4E",
"o c #427C54",
"O c #437D55",
"+ c #437E55",
"@ c #447F56",
"# c #9D5021",
"$ c #D67941",
"% c #468459",
"& c #47865B",
"* c #488558",
"= c #48875B",
"- c #4B8E5F",
"; c #4E8E5D",
": c #5B9051",
"> c #56985F",
", c #57995F",
"< c #599A5F",
"1 c #5A9B5E",
"2 c #5B9C5E",
"3 c #5F9E5D",
"4 c #609F5D",
"5 c #65A25B",
"6 c #66A35B",
"7 c #67A35B",
"8 c #67A45A",
"9 c #62A05C",
"0 c #63A05C",
"q c #63A15C",
"w c #6AA659",
"e c #6BA659",
"r c #69A55A",
"t c #6AA55A",
"y c #6AA65A",
"u c #6FA958",
"i c #6EA859",
"p c #75AD56",
"a c #79AF55",
"s c #7BB156",
"d c #7CB154",
"f c #4B8E60",
"g c #4B8F60",
"h c #4B9162",
"j c #4C9060",
"k c #4C9061",
"l c #4C9161",
"z c #4F9361",
"x c #4C9162",
"c c #4C9262",
"v c #4D9262",
"b c #4D9362",
"n c #4D9263",
"m c #4D9363",
"M c #4E9262",
"N c #4E9362",
"B c #509461",
"V c #519561",
"C c #529660",
"Z c #FFEA00",
"A c gray72",
"S c white",
/* pixels */
"vvvvvvvvvvvvvvvvvvvvvvvf@%hvvvvv",
"vvvvvvvvvvvZZZZvvvvvvvvv-vvvvvvv",
"vvvvvvvvvvZZZZZZvvvvvvvv@%Nvvvvv",
"vvvvvvvvvvZZZZZZvvvvvvvo=@%Nvvvv",
"vvvvvvvvvvZZZZZZvvvvvvvfo%vvvvvv",
"vvvvvvvvvvvZZZZvvvvvvvvvfgvvvvvv",
"vvvvvvvvvvvvZZvvvvvvvvvvvvvvvvvv",
"vvvvvvvvvvvvZZvvvvCtvvvvvvvvvvvv",
"vvvvvvvhvvvvZZvvvv1atvvvvvvvvvvv",
"   vvv15vvvvvvvvvf1d   6,vvvvvvv",
"  A  h3uvvvvZZvvvv  ## s2vv     ",
"  A  h3uC5vZZZZvvv  ## :-vv     ",
"  ASS  uCpBvZZvvv ##SS *-  #$$  ",
"  ASS  11pvvvvvvv ##SS vv  #$$  ",
"  ASS$$ C3vvvvvvv ##SS        vv",
"hv ##$$$  vvvvvvv ####$$$$$$  vv",
"6v ##$$$  vvvvvvv ####$$$$$$Z vv",
"69 ##$$$$$        ####$$Z$$$Z vv",
"36 ##$$$$$        ####$ZZ$$ZZZZv",
"rC ##$$$##  ###  #####ZZZZ##Z#  ",
"hvv  ###  #####  AAASSSZZSSS    ",
"vvv  ###  #####  AAASSSSZSSS    ",
"vvvvv     #####$$   AAASSSSS    ",
"vvvvv     #####$$   AAASSSSS    ",
"vvvvvvvv  ##      $$          vv",
"vvvvvvv ..  .       ##X    #XX  ",
"vvvvvvv ..  .       ##X    #XX  ",
"vvvvvvv      vvvvvvv   vvr4     ",
"vvvvvvv      vvvvvvv   vvr5     ",
"vvvvvvvvvvvvvvvvvvvvvvvvv74vBvvv",
"vvvvvvvvvvvvvv>vvvvvvvvvvvvvvvvv",
"vvvvvvvvvvvvvgr4vvvvvvvvvvvvvvvv"
};
