/* XPM */
static char *a2b0bcc7a7b14c3493e6973a1b87b087y6mvPMbgZGLAbinO[] = {
/* columns rows colors chars-per-pixel */
"32 32 233 2 ",
"   c #423F3D",
".  c #43403E",
"X  c #44403E",
"o  c #44413F",
"O  c #464340",
"+  c #464341",
"@  c #474441",
"#  c #474442",
"$  c #484542",
"%  c #484543",
"&  c #494543",
"*  c #494643",
"=  c #494743",
"-  c #4A4743",
";  c #494644",
":  c #494744",
">  c #4A4644",
",  c #4A4744",
"<  c #4A4845",
"1  c #4B4845",
"2  c #4C4946",
"3  c #4D4946",
"4  c #4D4A46",
"5  c #4D4A47",
"6  c #4E4B47",
"7  c #4E4B48",
"8  c #4F4B48",
"9  c #4F4C48",
"0  c #4E4C49",
"q  c #4F4D4A",
"w  c #514D4A",
"e  c #504D4B",
"r  c #514E4A",
"t  c #514E4B",
"y  c #524F4B",
"u  c #514E4C",
"i  c #524F4C",
"p  c #514F4E",
"a  c #53504C",
"s  c #53504D",
"d  c #54514C",
"f  c #54504D",
"g  c #54514D",
"h  c #54514E",
"j  c #55514E",
"k  c #55524E",
"l  c #54524F",
"z  c #56534F",
"x  c #57534F",
"c  c #57544F",
"v  c #565350",
"b  c #575450",
"n  c #575550",
"m  c #565451",
"M  c #575552",
"N  c #575553",
"B  c #585450",
"V  c #585550",
"C  c #585551",
"Z  c #595551",
"A  c #585652",
"S  c #595652",
"D  c #585653",
"F  c #595653",
"G  c #595753",
"H  c #5A5652",
"J  c #5A5753",
"K  c #5A5854",
"L  c #5A5855",
"P  c #5B5855",
"I  c #5B5955",
"U  c #5A5856",
"Y  c #5B5956",
"T  c #5B5957",
"R  c #5B5A57",
"E  c #5C5955",
"W  c #5C5956",
"Q  c #5C5A56",
"!  c #5C5A57",
"~  c #5D5A57",
"^  c #5D5B57",
"/  c #5C5B58",
"(  c #5D5B58",
")  c #5C5B59",
"_  c #5D5C58",
"`  c #5D5C59",
"'  c #5E5C59",
"]  c #5D5C5A",
"[  c #5E5C5A",
"{  c #5E5D5A",
"}  c #5F5D5A",
"|  c #5F5D5B",
" . c #5F5E5B",
".. c #5F5E5C",
"X. c #605D5B",
"o. c #605E5C",
"O. c #615E5C",
"+. c #605F5C",
"@. c #605F5D",
"#. c #615F5D",
"$. c #625E5D",
"%. c #60605D",
"&. c #61605D",
"*. c #61605E",
"=. c #61605F",
"-. c #61615F",
";. c #63605F",
":. c #62615F",
">. c #626260",
",. c #636260",
"<. c #626261",
"1. c #636361",
"2. c #636362",
"3. c #656161",
"4. c #646261",
"5. c #666262",
"6. c #666362",
"7. c #666363",
"8. c #646462",
"9. c #646463",
"0. c #656463",
"q. c #656564",
"w. c #666464",
"e. c #676565",
"r. c #666665",
"t. c gray40",
"y. c #666766",
"u. c #676766",
"i. c #676767",
"p. c #686464",
"a. c #686465",
"s. c #696465",
"d. c #696667",
"f. c #686767",
"g. c #6A6667",
"h. c #676867",
"j. c #6A6768",
"k. c #6B6768",
"l. c #686868",
"z. c #686969",
"x. c DimGray",
"c. c #6A6869",
"v. c #686A69",
"b. c #696A69",
"n. c #6B686A",
"m. c #686A6A",
"M. c #696A6A",
"N. c #696A6B",
"B. c #696B6B",
"V. c #6A6B6B",
"C. c #6C6869",
"Z. c #6D696A",
"A. c #6D696B",
"S. c #6D6A6B",
"D. c #6A6B6C",
"F. c #6B6B6C",
"G. c #6F6B6D",
"H. c #6B6C6C",
"J. c #6B6C6D",
"K. c #6C6C6C",
"L. c #6C6C6D",
"P. c #6D6C6D",
"I. c #6C6C6E",
"U. c #6D6D6E",
"Y. c #6D6D6F",
"T. c #6E6D6F",
"R. c #6D6E6F",
"E. c #706B6E",
"W. c #6E6E70",
"Q. c #6F6E70",
"!. c #6F6F70",
"~. c #6F6F71",
"^. c #706F71",
"/. c #706F72",
"(. c #746F73",
"). c #707072",
"_. c #717072",
"`. c #717073",
"'. c #717173",
"]. c #727073",
"[. c #727173",
"{. c #727174",
"}. c #737175",
"|. c #737275",
" X c #747276",
".X c #747376",
"XX c #757377",
"oX c #767378",
"OX c #767478",
"+X c #777479",
"@X c #777579",
"#X c #77757A",
"$X c #78757A",
"%X c #79757B",
"&X c #79767B",
"*X c #79767C",
"=X c #7A767C",
"-X c #7A777C",
";X c #7A777D",
":X c #7B777D",
">X c #7B787E",
",X c #7C787E",
"<X c #7C787F",
"1X c #7D787F",
"2X c #7C797F",
"3X c #7D797F",
"4X c #7D7980",
"5X c #7E7980",
"6X c #7E7A81",
"7X c #7F7A81",
"8X c #7F7A82",
"9X c #7F7B82",
"0X c #807B82",
"qX c #807B83",
"wX c #817B83",
"eX c #807C83",
"rX c #817C83",
"tX c #817C84",
"yX c #827C85",
"uX c #827D85",
"iX c #837D85",
"pX c #837D86",
"aX c #837E86",
"sX c #847E86",
"dX c #847E87",
"fX c #847E88",
"gX c #857E88",
"hX c #847F88",
"jX c #857F88",
"kX c #857F89",
"lX c #867F89",
"zX c #868089",
"xX c #86808A",
/* pixels */
"V.V.V.K A &   X a t.J.J.B.V.+XjXjXaXjXyXjXfX1XV.V.V.N.N.j.R V.V.",
"7XV.V.t.t.A + t ,.l.@X9X9X7XyXjXaXjXjXjXjXyXyXwXyX7X7XyX7Xt.V.7X",
"dX7XV.V.V.~ k :.l.l.>XhXjXaXjXaXdXdXyXjXaXjXaXjXyXjXyXyXaX1XN.dX",
"dXdXL.V.V.~ A t.V.V.>XzXaXjXaXjXdXdXjX4X+XjXjXaXjXaXjXjXdXdX1XdX",
"dXdXJ.V.V.~ 5 R l.V.Q.9XjXjXdXjXjXjX7XP.}.zXhXhXaXjXdXjXdXjXjXhX",
"$X@XJ.,.+.t X , / :.t.}.yXjXjXjX7X+X/.t.t.7XjXjXjXjXjXjXjXjXjXjX",
",.,.:.a k 5 1 , a A +.,.A.(.(.(.n.;.,.' ' Q.-X-X-X%X(.(.(.(.(.(.",
"A n B & R ' ' ' ' ' A x A k x x N k k N ' 9.t.,.9.;.x x A A v v ",
"+.$.$.$.P.Q.Q.Q.Q.Q.t.$.+.+.X.~ ' p 7 A A n a k k A ' R A A ~ ~ ",
"dXdXdXdXdXdXdXdXdXdXdXaXdXdXoXL.L.7.K K ~ a + . , ' N.l.K ' A.V.",
"dXdXdXdXdXdXdXdXdXdXdXdXdXdXaXaXpXpX@XV.V.,.t & ' Q.7XN.V.N.aXaX",
"dXdXdXdXdXdXdXaXdXdXdXdXdXdXdXdXdXdXhX@XV.,.k R Q.aX7XN.L.yXdXaX",
"dXdXaXdXdXdXaXaXdXdXdXdXdXdXjX$XoXjXjX-Xl.9.n ' Q.dXaX9XwXdXdXdX",
"dXdXzXaXdXdXzXzXdXdXdXdXjXzX-XJ.L.1X7XP.t.n 5 ' [.zXdXzXjXjXjXjX",
"|.[.[.aXzX@X}.}.wXjXzX$X}.}.Q.1.9.j.4...A + # R ,.}.}..X}.}.}.}.",
"$.$.:.k.A.:.$. .g.A.A.4.' +.%.R ' n & t k 6 5 1 t ..............",
"A v 7 7 5 7 5 w 6 5 d B A x N A v t & k +.+.| p 7 v n n A N x A ",
"' ' 2 , & ,     . # A $.X.' ' ;.a.a.g.A.}.Q.N.l.' | ' ..' ' ' ' ",
"/./.' ' ' ' 5   o A t.P././.Q.-XzXdXdXdXjX7XQ./.~.Q.}.Q./.[././.",
"dXdXQ.V.V.V.' , c t.P.,XdXdXhXaXdXdXdXdXjXaXjXjXjXhXhXaXdXdXdXdX",
"dXdXaXP.V.V.R n 9.h.>XdXaX9XaXhXdXdXdXdXdXdXdXyXyXyXyXyXrXaXaXaX",
"dXdXdXyXP.l.R n 9.V.>XdX}.V.-XjXdXdXdXdXdXdXdX4XL.L.N.N.P.Q.aXaX",
"aXjXdXP.V.~ 1 k K 9.B.P.V.@XaXjXdXjXdXjXdXaXdXaXyX-XV.L.7XyXhXaX",
"Q./.Q.' R 1 . X k ~ R ~ 1.Q.Q.P./.P./.P.Q.@XjXjXjXjX4XyXjXjXjXjX",
"' ' ^ 5 k y y y , a K A ~ ' ~ ' ~ ' ' ~ ' ' g.[./.(.}.[.[.Q.9.4.",
"A k B t A A :.9.v k n n N k B A n n c c n a 0 $.' ......' / , , ",
"+.:...:.K ' V.V.,...j.E.E.E.g...:.%.+.:.:.R 5 A k , 7 7 x N 7 5 ",
"XXXXXXB.:.h.k./.XX}.yXjXdXjX,XXXXXXXXXXXXX/.a.../ ,   7 $.+.+.g.",
"jXjXhX(.V.Q.}.7XjXjXjXjXjXaXjXjXdXzXdXzXjXjXyX/.t.K 5 R V.V.}.aX",
"yXhXhXjX[.rXjXhXjXyXyXjXaXjXaXdXaXdXdXaXdXjXyX$XV.t.A ~ V.V.aXjX",
"jXjXyXjXaXjXaXjXjXjXyXjXjXaXdXdXdXdXdXdXaX7X$Xh.V.t.n A t.P.7XjX",
"jXyXjXaXjXaXjXaXyXjXjXjXyXjXdXdXdXdXdXjX-XV.V.V.V.t.k # ~ N.N.aX"
};
