/* XPM */
static char *_c3464c3fa9a497386878dcda0d6017cPHjYqJ3hYPF392vw[] = {
/* columns rows colors chars-per-pixel */
"32 32 21 1 ",
"  c #228B22",
". c black",
"X c #010101",
"o c #0A0A0C",
"O c #0D0D0E",
"+ c #101112",
"@ c #232326",
"# c #B8B9C9",
"$ c #B9BACA",
"% c #BABBCB",
"& c #BCBDCD",
"* c #BDBECE",
"= c #BEBFCF",
"- c #C6C7D7",
"; c #C6C7D8",
": c #C7C8D9",
"> c #C8C9DA",
", c #C9CADA",
"< c #CCCDDE",
"1 c #CDCEDF",
"2 c #CECFE0",
/* pixels */
"                                ",
"        ##    22                ",
"       $$$$   221               ",
"       $$$$   222               ",
"        #$$   1222              ",
"        $$$$   222              ",
"         $$$   222              ",
"         $$$   2222             ",
"          $$   2222             ",
"          $$    222             ",
"          $$$   222             ",
"           $$   222             ",
"           $$122222             ",
"           ;2222222             ",
"          222222222             ",
"          222222222             ",
"          o222O2222             ",
"         2.222+2222             ",
"         2.222@111=222          ",
"         22222=22=:2221         ",
"          221222$=222221        ",
"           1<<>$$-2222222       ",
"            $$$$:22222222       ",
"            =$$:222222221       ",
"           122222222222212      ",
"           122222222222222      ",
"           122222222222222$$    ",
"           12222222$2222122$    ",
"            21$12222$222122$    ",
"            11$122$$212222$     ",
"            $2$1$<$1<11>$$      ",
"            $$$$$$$$$$$$        "
};
